			<svg width="814" height="552" viewBox="0 0 814 552" fill="none" xmlns="http://www.w3.org/2000/svg">
				<g id="beer-svg" clip-path="url(#clip0_1_2)">
				<g id="beer-glass">
				<path id="Vector" d="M480.075 476.694C484.213 467.315 484.663 456.721 481.337 447.025C481.006 446.064 482.514 445.602 482.844 446.562C486.287 456.658 485.796 467.682 481.469 477.433C481.055 478.362 479.664 477.618 480.075 476.694Z" fill="white"/>
				<path id="Vector_2" d="M684.379 550H518.372C509.093 549.99 500.198 546.299 493.637 539.738C487.076 533.178 483.386 524.282 483.375 515.004V258.996C483.386 249.718 487.076 240.822 493.637 234.262C500.198 227.701 509.093 224.011 518.372 224H684.379C693.658 224.011 702.553 227.701 709.114 234.262C715.675 240.822 719.365 249.718 719.375 258.996V515.004C719.365 524.282 715.675 533.178 709.114 539.738C702.553 546.299 693.658 549.99 684.379 550V550ZM518.372 226C509.623 226.01 501.237 229.489 495.051 235.675C488.865 241.861 485.385 250.248 485.375 258.996V515.004C485.385 523.752 488.865 532.139 495.051 538.325C501.237 544.511 509.623 547.99 518.372 548H684.379C693.127 547.99 701.514 544.511 707.7 538.325C713.886 532.139 717.366 523.752 717.375 515.004V258.996C717.366 250.248 713.886 241.861 707.7 235.675C701.514 229.489 693.127 226.01 684.379 226H518.372Z" fill="#3F3D56"/>
				<path id="Vector_3" d="M718.375 468.543V466.543C743.113 466.543 766.837 456.717 784.329 439.225C801.82 421.733 811.647 398.009 811.647 373.272C811.647 348.535 801.82 324.811 784.329 307.319C766.837 289.827 743.113 280 718.375 280V278C743.643 278 767.876 288.038 785.743 305.904C803.61 323.771 813.647 348.004 813.647 373.272C813.647 398.539 803.61 422.772 785.743 440.639C767.876 458.506 743.643 468.543 718.375 468.543V468.543Z" fill="#3F3D56"/>
				<path id="Vector_4" d="M718.848 450.543H717.848V448.022H719.848V448.537C738.715 448.273 756.713 440.559 769.915 427.077C783.117 413.595 790.452 395.44 790.32 376.571C790.188 357.702 782.6 339.651 769.21 326.356C755.821 313.06 737.717 305.598 718.848 305.599V303.599C738.334 303.599 757.022 311.339 770.801 325.118C784.58 338.897 792.32 357.585 792.32 377.071C792.32 396.557 784.58 415.245 770.801 429.024C757.022 442.803 738.334 450.543 718.848 450.543V450.543Z" fill="#3F3D56"/>
				</g>
				<g id="beer-bottle">
				<path id="Vector_5" d="M341.945 551.439L277.405 551.299C273.238 551.29 269.113 550.46 265.267 548.857C261.421 547.255 257.928 544.91 254.988 541.957C252.048 539.004 249.718 535.501 248.132 531.648C246.546 527.794 245.735 523.667 245.744 519.5L246.187 316.18C246.203 304.274 249.726 292.637 256.316 282.721L263.823 271.41L281.785 137.534C279.399 136.967 277.305 135.544 275.9 133.534C274.496 131.524 273.879 129.068 274.167 126.633C274.456 124.198 275.629 121.954 277.464 120.328C279.299 118.701 281.668 117.806 284.12 117.812L338.119 117.93C340.577 117.935 342.947 118.845 344.777 120.486C346.606 122.128 347.767 124.386 348.037 126.829C348.307 129.272 347.668 131.729 346.241 133.73C344.814 135.731 342.7 137.137 340.302 137.678L356.735 271.508C367.991 282.88 374.271 298.258 374.192 314.259L373.744 519.779C373.735 523.946 372.905 528.07 371.302 531.916C369.699 535.762 367.355 539.255 364.402 542.195C361.449 545.135 357.946 547.465 354.093 549.051C350.239 550.637 346.111 551.449 341.945 551.439V551.439Z" fill="white"/>
				<path id="Vector_6" d="M337.45 537.305L281.961 537.185C278.426 537.177 274.926 536.473 271.663 535.113C268.4 533.753 265.436 531.764 262.942 529.259C260.447 526.753 258.471 523.781 257.125 520.512C255.78 517.243 255.091 513.74 255.099 510.205L255.48 335.398C255.494 325.232 258.502 315.295 264.128 306.829L270.629 297.034L287.277 172.943L334.585 173.046L349.823 297.155C354.608 301.966 358.396 307.675 360.968 313.954C363.541 320.234 364.848 326.959 364.815 333.745L364.429 510.443C364.422 513.979 363.718 517.478 362.358 520.741C360.999 524.005 359.009 526.968 356.504 529.463C353.998 531.957 351.026 533.934 347.757 535.279C344.488 536.625 340.986 537.313 337.45 537.305V537.305Z" fill="#F9A826"/>
				<path id="Vector_7" d="M341.945 551.439L277.405 551.299C273.238 551.29 269.113 550.46 265.267 548.857C261.421 547.255 257.928 544.91 254.988 541.957C252.048 539.004 249.718 535.501 248.132 531.648C246.546 527.794 245.735 523.667 245.744 519.5L246.187 316.18C246.203 304.274 249.726 292.637 256.316 282.721L263.823 271.41L281.785 137.534C279.399 136.967 277.305 135.544 275.9 133.534C274.496 131.524 273.879 129.068 274.167 126.633C274.456 124.198 275.629 121.954 277.464 120.328C279.299 118.701 281.668 117.806 284.12 117.812L338.119 117.93C340.577 117.935 342.947 118.845 344.777 120.486C346.606 122.128 347.767 124.386 348.037 126.829C348.307 129.272 347.668 131.729 346.241 133.73C344.814 135.731 342.7 137.137 340.302 137.678L356.735 271.508C367.991 282.88 374.271 298.258 374.192 314.259L373.744 519.779C373.735 523.946 372.905 528.07 371.302 531.916C369.699 535.762 367.355 539.255 364.402 542.195C361.449 545.135 357.946 547.465 354.093 549.051C350.239 550.637 346.111 551.449 341.945 551.439V551.439ZM284.115 119.812C282.085 119.807 280.128 120.574 278.643 121.958C277.157 123.342 276.254 125.24 276.116 127.266C275.979 129.292 276.617 131.294 277.902 132.867C279.186 134.439 281.021 135.464 283.034 135.733L284.026 135.865L265.744 272.131L257.982 283.827C251.609 293.416 248.202 304.671 248.187 316.185L247.744 519.504C247.735 523.408 248.495 527.276 249.982 530.886C251.468 534.497 253.65 537.779 256.405 540.546C259.16 543.313 262.433 545.51 266.036 547.011C269.64 548.513 273.505 549.29 277.409 549.299L341.949 549.439C345.853 549.448 349.721 548.688 353.331 547.202C356.942 545.716 360.224 543.533 362.991 540.778C365.758 538.023 367.955 534.751 369.456 531.147C370.958 527.543 371.735 523.679 371.744 519.774L372.192 314.255C372.23 306.536 370.736 298.887 367.798 291.75C364.86 284.613 360.536 278.129 355.075 272.674L354.833 272.431L338.079 135.985L339.073 135.864C341.093 135.616 342.943 134.608 344.246 133.044C345.548 131.48 346.205 129.478 346.083 127.447C345.961 125.415 345.069 123.506 343.588 122.11C342.108 120.713 340.15 119.934 338.115 119.93L284.115 119.812Z" fill="#3F3D56"/>
				<path id="Vector_8" d="M247.088 361.732L246.931 433.732L372.931 434.007L373.088 362.007L247.088 361.732Z" fill="#3F3D56"/>
				<path id="Vector_9" d="M247.933 432.734L371.933 433.004L372.086 363.005L248.086 362.734L247.933 432.734Z" fill="#3F3D56"/>
				<path id="Vector_10" d="M296.468 238.785C298.168 236.609 297.782 233.467 295.606 231.767C293.43 230.067 290.288 230.453 288.588 232.629C286.888 234.805 287.274 237.947 289.45 239.647C291.626 241.347 294.768 240.961 296.468 238.785Z" fill="white"/>
				<path id="Vector_11" d="M323.429 256.844C325.129 254.668 324.743 251.526 322.567 249.826C320.391 248.126 317.249 248.511 315.549 250.687C313.849 252.863 314.234 256.006 316.411 257.706C318.587 259.406 321.729 259.02 323.429 256.844Z" fill="white"/>
				<path id="Vector_12" d="M305.35 292.805C307.051 290.629 306.665 287.486 304.489 285.786C302.313 284.086 299.17 284.472 297.47 286.648C295.77 288.824 296.156 291.966 298.332 293.666C300.508 295.367 303.65 294.981 305.35 292.805Z" fill="white"/>
				<path id="Vector_13" d="M314.547 202.825C316.247 200.649 315.861 197.506 313.685 195.806C311.509 194.106 308.367 194.492 306.667 196.668C304.966 198.844 305.352 201.986 307.528 203.686C309.704 205.386 312.847 205.001 314.547 202.825Z" fill="white"/>
				</g>
				<g id="beer-dropping-effects">
				<path id="Vector_14" d="M515.392 58.1901C524.38 54.5172 534.124 53.0747 543.79 53.9859C553.457 54.8971 562.759 58.1349 570.902 63.4226C587.651 74.1758 600.13 93.5489 604.299 115.269C606.341 125.914 607.08 138.295 614.527 144.922C619.981 149.775 627.407 149.902 633.971 152.248C653.382 159.188 663.4 186.125 660.573 209.519C657.746 232.913 645.159 253.061 631.65 270.699C635.945 261.221 630.368 248.929 622.21 243.955C614.053 238.981 604.331 239.399 595.148 240.222C585.965 241.045 576.395 242.088 567.831 238.143C553.199 231.402 545.792 211.867 544.687 193.604C543.582 175.34 547.233 157.139 547.495 138.833C547.757 120.527 543.692 100.474 531.048 89.572C525.233 84.5585 518.038 81.8841 512.629 76.2894C507.22 70.6947 504.317 60.0747 509.371 54.0476" fill="#F9A826"/>
				<path id="Vector_15" d="M566.618 117.699C569.379 117.699 571.618 115.46 571.618 112.699C571.618 109.938 569.379 107.699 566.618 107.699C563.856 107.699 561.618 109.938 561.618 112.699C561.618 115.46 563.856 117.699 566.618 117.699Z" fill="white"/>
				<path id="Vector_16" d="M584.618 144.699C587.379 144.699 589.618 142.46 589.618 139.699C589.618 136.938 587.379 134.699 584.618 134.699C581.856 134.699 579.618 136.938 579.618 139.699C579.618 142.46 581.856 144.699 584.618 144.699Z" fill="white"/>
				<path id="Vector_17" d="M584.618 189.699C587.379 189.699 589.618 187.46 589.618 184.699C589.618 181.938 587.379 179.699 584.618 179.699C581.856 179.699 579.618 181.938 579.618 184.699C579.618 187.46 581.856 189.699 584.618 189.699Z" fill="white"/>
				<path id="Vector_18" d="M653.885 108.307C657.404 112.578 669.155 125.887 680.9 128.442C694.931 131.495 701.87 126.132 703.632 118.037C705.393 109.943 701.31 102.181 687.278 99.128C675.385 96.5399 658.901 103.98 654.153 106.307L653.885 108.307Z" fill="#F9A826"/>
				<path id="Vector_19" d="M509.447 96.376C512.763 97.3063 517.02 96.3728 520.588 93.5973C525.82 89.5284 527.587 83.0494 524.535 79.1258C523.979 78.4148 523.291 77.8189 522.507 77.3714C522.898 76.1683 522.999 74.89 522.803 73.6405C522.606 72.3909 522.118 71.2052 521.378 70.1798C520.982 69.6743 520.518 69.2266 519.998 68.8499C523.439 64.0872 524.729 59.8299 522.956 57.5502C522.442 56.9892 521.807 56.552 521.1 56.2712C520.392 55.9904 519.63 55.8734 518.871 55.929C519.121 53.9836 518.605 52.0173 517.431 50.446C514.854 47.1329 509.667 46.713 504.964 49.1091C504.908 49.0298 504.861 48.9448 504.801 48.8673C501.749 44.9437 495.035 45.0616 489.803 49.1305C487.185 51.0837 485.336 53.8945 484.579 57.0722C481.312 57.024 478.133 58.1244 475.595 60.1814C470.364 64.2503 468.597 70.7293 471.648 74.6529C471.783 74.8263 471.933 74.9817 472.082 75.1394L472.02 75.2037C471.902 75.0171 471.786 74.8298 471.648 74.6529C468.597 70.7293 461.882 70.8472 456.651 74.916C454.032 76.8693 452.183 79.6801 451.426 82.8578C448.16 82.8096 444.98 83.91 442.442 85.967C437.211 90.0359 435.444 96.5148 438.496 100.438C441.547 104.362 448.262 104.244 453.493 100.175C452.279 101.117 451.326 102.354 450.727 103.769C450.127 105.184 449.9 106.729 450.067 108.256C450.234 109.784 450.791 111.243 451.683 112.494C452.575 113.745 453.772 114.747 455.162 115.403C454.057 118.063 453.948 120.305 455.072 121.751C456.845 124.031 461.289 123.828 466.752 121.666C466.989 122.262 467.309 122.822 467.702 123.33C470.753 127.253 477.468 127.135 482.699 123.066C485.318 121.113 487.167 118.303 487.925 115.125C491.191 115.173 494.37 114.072 496.908 112.016C498.112 111.082 499.173 109.975 500.055 108.732C501.477 108.183 502.81 107.428 504.012 106.49C507.58 103.715 509.533 99.8186 509.447 96.376Z" fill="#F0F0F0"/>
				<path id="Vector_20" d="M743.842 239.31C744.492 244.806 747.178 262.356 755.674 270.858C765.824 281.014 774.562 280.257 780.422 274.401C786.281 268.545 787.045 259.809 776.894 249.651C768.291 241.042 750.402 238.384 745.15 237.774L743.842 239.31Z" fill="#F9A826"/>
				<path id="Vector_21" d="M514.952 126.338C509.621 127.826 492.694 133.179 485.6 142.882C477.125 154.473 479.217 162.99 485.904 167.88C492.592 172.769 501.342 172.18 509.817 160.588C517.001 150.762 516.876 132.678 516.672 127.394L514.952 126.338Z" fill="#F9A826"/>
				</g>
				<path id="table" d="M864.01 549.938C864.009 550.095 863.975 550.25 863.91 550.395C863.844 550.539 863.749 550.671 863.629 550.781C863.509 550.892 863.366 550.979 863.21 551.039C863.053 551.098 862.886 551.128 862.717 551.128H165.292C164.952 551.128 164.625 551.002 164.385 550.779C164.145 550.556 164.009 550.253 164.009 549.938C164.009 549.622 164.145 549.319 164.385 549.096C164.625 548.873 164.952 548.748 165.292 548.748H862.717C862.886 548.747 863.054 548.777 863.21 548.837C863.366 548.896 863.509 548.984 863.629 549.094C863.749 549.205 863.844 549.336 863.91 549.481C863.975 549.626 864.009 549.781 864.01 549.938V549.938Z" fill="#3F3D56"/>
				<g id="berr-fill">
				<rect id="fill-12" x="500" y="247" width="199" height="56" rx="20" fill="#F9A826"/>
				<rect id="fill-11" x="500" y="276" width="199" height="56" rx="20" fill="#F9A826"/>
				<rect id="fill-10" x="500" y="297" width="199" height="56" rx="20" fill="#F9A826"/>
				<rect id="fill-9" x="500" y="319" width="199" height="56" rx="20" fill="#F9A826"/>
				<rect id="fill-8" x="500" y="344" width="199" height="56" rx="20" fill="#F9A826"/>
				<rect id="fill-7" x="500" y="361" width="199" height="56" rx="20" fill="#F9A826"/>
				<rect id="fill-6" x="500" y="375" width="199" height="56" rx="20" fill="#F9A826"/>
				<rect id="fill-5" x="500" y="391" width="199" height="56" rx="20" fill="#F9A826"/>
				<rect id="fill-4" x="500" y="411" width="199" height="56" rx="20" fill="#F9A826"/>
				<rect id="fill-3" x="500" y="431" width="199" height="56" rx="20" fill="#F9A826"/>
				<rect id="fill-2" x="500" y="455" width="199" height="56" rx="20" fill="#F9A826"/>
				<rect id="fill-1" x="500" y="473" width="199" height="56" rx="20" fill="#F9A826"/>
				</g>
				<path id="beer-full" d="M705 206C704.477 206 703.958 206.019 703.441 206.048C705.229 201.017 705.485 195.568 704.177 190.391C702.869 185.214 700.056 180.541 696.093 176.963C692.13 173.384 687.195 171.061 681.912 170.286C676.629 169.511 671.235 170.32 666.411 172.61C662.083 160.428 652.781 152 642 152C631.219 152 621.917 160.428 617.589 172.61C613.967 170.891 610.009 170 606 170C601.991 170 598.033 170.891 594.411 172.61C590.083 160.428 580.781 152 570 152C559.219 152 549.917 160.428 545.589 172.61C540.764 170.319 535.368 169.51 530.084 170.286C524.799 171.062 519.863 173.388 515.9 176.968C511.937 180.549 509.125 185.225 507.82 190.404C506.514 195.583 506.773 201.033 508.564 206.065C508.046 206.025 507.525 206 507 206C492.088 206 480 222.118 480 242C480 261.882 492.088 278 507 278C519.281 278 529.64 267.063 532.916 252.099C536.858 256.037 541.922 258.659 547.413 259.607C552.905 260.554 558.555 259.78 563.589 257.39C567.917 269.572 577.219 278 588 278C600.281 278 610.64 267.063 613.916 252.099C617.858 256.037 622.922 258.659 628.413 259.607C633.905 260.554 639.555 259.78 644.589 257.39C648.917 269.572 658.219 278 669 278C679.781 278 689.083 269.572 693.411 257.39C697.07 259.129 701.072 260.021 705.123 260.003C709.173 259.984 713.167 259.055 716.81 257.283C720.452 255.511 723.649 252.943 726.164 249.768C728.679 246.593 730.448 242.893 731.339 238.941C732.23 234.99 732.22 230.889 731.311 226.942C730.402 222.995 728.617 219.303 726.088 216.139C723.558 212.976 720.35 210.422 716.699 208.667C713.049 206.912 709.05 206 705 206V206Z" fill="#F0F0F0"/>
				<g id="bubbles">
				<path id="Vector_22" d="M579 413C581.761 413 584 410.761 584 408C584 405.239 581.761 403 579 403C576.239 403 574 405.239 574 408C574 410.761 576.239 413 579 413Z" fill="white"/>
				<path id="Vector_23" d="M611 355C613.761 355 616 352.761 616 350C616 347.239 613.761 345 611 345C608.239 345 606 347.239 606 350C606 352.761 608.239 355 611 355Z" fill="white"/>
				<path id="Vector_24" d="M575 373C577.761 373 580 370.761 580 368C580 365.239 577.761 363 575 363C572.239 363 570 365.239 570 368C570 370.761 572.239 373 575 373Z" fill="white"/>
				<path id="Vector_25" d="M638 427C640.761 427 643 424.761 643 422C643 419.239 640.761 417 638 417C635.239 417 633 419.239 633 422C633 424.761 635.239 427 638 427Z" fill="white"/>
				<path id="Vector_26" d="M656 328C658.761 328 661 325.761 661 323C661 320.239 658.761 318 656 318C653.239 318 651 320.239 651 323C651 325.761 653.239 328 656 328Z" fill="white"/>
				<path id="Vector_27" d="M548 328C550.761 328 553 325.761 553 323C553 320.239 550.761 318 548 318C545.239 318 543 320.239 543 323C543 325.761 545.239 328 548 328Z" fill="white"/>
				</g>
				</g>
				<defs>
				<clipPath id="clip0_1_2">
				<rect width="813.689" height="551.128" fill="white"/>
				</clipPath>
				</defs>
			</svg>
