	<svg width="498" height="465" viewBox="0 0 498 465" fill="none" xmlns="http://www.w3.org/2000/svg">
		<g id="beer-bottle">
		<path id="Vector" d="M277.945 464.439L213.405 464.299C209.238 464.29 205.113 463.46 201.267 461.857C197.421 460.255 193.928 457.91 190.988 454.957C188.048 452.004 185.718 448.501 184.132 444.648C182.546 440.794 181.735 436.667 181.744 432.5L182.187 229.18C182.203 217.274 185.726 205.637 192.316 195.721L199.823 184.41L217.785 50.5338C215.399 49.9673 213.305 48.5437 211.9 46.5338C210.496 44.5239 209.879 42.068 210.167 39.633C210.456 37.198 211.629 34.9539 213.464 33.3276C215.299 31.7012 217.668 30.806 220.12 30.8123L274.119 30.93C276.577 30.9347 278.947 31.8447 280.777 33.4862C282.606 35.1277 283.767 37.3856 284.037 39.8286C284.307 42.2716 283.668 44.7286 282.241 46.73C280.814 48.7314 278.7 50.1371 276.302 50.6785L292.735 184.508C303.991 195.88 310.271 211.258 310.192 227.259L309.744 432.779C309.735 436.946 308.905 441.07 307.302 444.916C305.699 448.762 303.355 452.255 300.402 455.195C297.449 458.135 293.946 460.465 290.093 462.051C286.239 463.637 282.111 464.449 277.945 464.439V464.439Z" fill="white"/>
		<path id="Vector_2" d="M273.45 450.305L217.961 450.185C214.426 450.177 210.926 449.473 207.663 448.113C204.4 446.753 201.436 444.764 198.942 442.259C196.447 439.753 194.471 436.781 193.125 433.512C191.78 430.243 191.091 426.74 191.099 423.205L191.48 248.398C191.494 238.232 194.502 228.295 200.128 219.829L206.629 210.034L223.277 85.9433L270.585 86.0464L285.823 210.155C290.608 214.966 294.396 220.675 296.968 226.954C299.541 233.234 300.848 239.959 300.815 246.745L300.429 423.443C300.422 426.979 299.718 430.478 298.358 433.741C296.999 437.005 295.009 439.968 292.504 442.463C289.998 444.957 287.026 446.934 283.757 448.279C280.488 449.625 276.986 450.313 273.45 450.305V450.305Z" fill="#F9A826"/>
		<path id="Vector_3" d="M277.945 464.439L213.405 464.299C209.238 464.29 205.113 463.46 201.267 461.857C197.421 460.255 193.928 457.91 190.988 454.957C188.048 452.004 185.718 448.501 184.132 444.648C182.546 440.794 181.735 436.667 181.744 432.5L182.187 229.18C182.203 217.274 185.726 205.637 192.316 195.721L199.823 184.41L217.785 50.5338C215.399 49.9673 213.305 48.5437 211.9 46.5338C210.496 44.5239 209.879 42.068 210.167 39.633C210.456 37.198 211.629 34.9539 213.464 33.3276C215.299 31.7012 217.668 30.806 220.12 30.8123L274.119 30.93C276.577 30.9347 278.947 31.8447 280.777 33.4862C282.606 35.1277 283.767 37.3856 284.037 39.8286C284.307 42.2716 283.668 44.7286 282.241 46.73C280.814 48.7314 278.7 50.1371 276.302 50.6785L292.735 184.508C303.991 195.88 310.271 211.258 310.192 227.259L309.744 432.779C309.735 436.946 308.905 441.07 307.302 444.916C305.699 448.762 303.355 452.255 300.402 455.195C297.449 458.135 293.946 460.465 290.093 462.051C286.239 463.637 282.111 464.449 277.945 464.439V464.439ZM220.115 32.8123C218.085 32.8067 216.128 33.5739 214.643 34.9582C213.157 36.3425 212.254 38.2401 212.116 40.266C211.979 42.2919 212.617 44.2943 213.902 45.8667C215.186 47.4391 217.021 48.4638 219.034 48.7328L220.026 48.8649L201.744 185.131L193.982 196.827C187.609 206.416 184.202 217.671 184.187 229.185L183.744 432.504C183.735 436.408 184.495 440.276 185.982 443.886C187.468 447.497 189.65 450.779 192.405 453.546C195.16 456.313 198.433 458.51 202.036 460.011C205.64 461.513 209.505 462.29 213.409 462.299L277.949 462.439C281.853 462.448 285.721 461.688 289.331 460.202C292.942 458.716 296.224 456.533 298.991 453.778C301.758 451.023 303.955 447.751 305.456 444.147C306.958 440.543 307.735 436.679 307.744 432.774L308.192 227.255C308.23 219.536 306.736 211.887 303.798 204.75C300.86 197.613 296.536 191.129 291.075 185.674L290.833 185.431L274.079 48.9847L275.073 48.8638C277.093 48.6164 278.943 47.608 280.246 46.0441C281.548 44.4801 282.205 42.4783 282.083 40.4466C281.961 38.415 281.069 36.5064 279.588 35.1097C278.108 33.7131 276.15 32.9336 274.115 32.93L220.115 32.8123Z" fill="#3F3D56"/>
		<path id="Vector_4" d="M183.088 274.732L182.931 346.732L308.931 347.007L309.088 275.007L183.088 274.732Z" fill="#3F3D56"/>
		<path id="Vector_5" d="M183.933 345.734L307.933 346.004L308.086 276.005L184.086 275.734L183.933 345.734Z" fill="#3F3D56"/>
		<path id="Vector_6" d="M232.468 151.785C234.168 149.609 233.782 146.467 231.606 144.767C229.43 143.067 226.288 143.453 224.588 145.629C222.888 147.805 223.274 150.947 225.45 152.647C227.626 154.347 230.768 153.961 232.468 151.785Z" fill="white"/>
		<path id="Vector_7" d="M259.429 169.844C261.129 167.668 260.743 164.526 258.567 162.826C256.391 161.126 253.249 161.511 251.549 163.687C249.849 165.863 250.234 169.006 252.411 170.706C254.587 172.406 257.729 172.02 259.429 169.844Z" fill="white"/>
		<path id="Vector_8" d="M241.35 205.805C243.051 203.629 242.665 200.486 240.489 198.786C238.313 197.086 235.17 197.472 233.47 199.648C231.77 201.824 232.156 204.966 234.332 206.666C236.508 208.367 239.65 207.981 241.35 205.805Z" fill="white"/>
		<path id="Vector_9" d="M250.547 115.825C252.247 113.649 251.861 110.506 249.685 108.806C247.509 107.106 244.367 107.492 242.667 109.668C240.966 111.844 241.352 114.986 243.528 116.686C245.704 118.386 248.847 118.001 250.547 115.825Z" fill="white"/>
		</g>
	</svg>
