<svg width="567" height="155" viewBox="0 0 567 155" fill="none" xmlns="http://www.w3.org/2000/svg">
	<g id="destux-text">
	<g id="destux-D" filter="url(#filter0_i_10_2)">
	<path d="M17.8 3H54.2C68.8667 3 81.2667 5.19999 91.4 9.59999C101.533 14 109.733 19.8 116 27C122.4 34.0667 127 42.0667 129.8 51C132.733 59.8 134.2 68.6 134.2 77.4C134.2 88.2 132.267 98 128.4 106.8C124.533 115.467 119.267 122.867 112.6 129C105.933 135.133 98.2 139.867 89.4 143.2C80.6 146.4 71.2667 148 61.4 148H17.8V3ZM58.2 127.2C65.9333 127.2 73.0667 126.067 79.6 123.8C86.2667 121.533 92 118.267 96.8 114C101.733 109.6 105.533 104.267 108.2 98C111 91.6 112.4 84.2667 112.4 76C112.4 67.2 110.867 59.5333 107.8 53C104.733 46.4667 100.733 41.0667 95.8 36.8C90.8667 32.4 85.2667 29.2 79 27.2C72.8667 25.0667 66.6 24 60.2 24H39.6V127.2H58.2Z" fill="#972AED"/>
	</g>
	<g id="destux-e" filter="url(#filter1_i_10_2)">
	<path d="M215.8 133.2C211.8 136.8 206.933 139.667 201.2 141.8C195.467 143.933 189.6 145 183.6 145C177.467 145 171.667 143.867 166.2 141.6C160.867 139.2 156.2 136.067 152.2 132.2C148.2 128.2 145 123.533 142.6 118.2C140.333 112.867 139.2 107.2 139.2 101.2C139.2 95.2 140.333 89.5333 142.6 84.2C145 78.8667 148.2 74.2 152.2 70.2C156.2 66.2 160.8 63.0667 166 60.8C171.333 58.4 177 57.2 183 57.2C192.467 57.2 200.667 60.0667 207.6 65.8C214.667 71.4 219.733 78.8 222.8 88C218.667 89.4667 213.933 91.2667 208.6 93.4C203.267 95.5333 197.733 97.8 192 100.2C186.267 102.467 180.533 104.733 174.8 107C169.067 109.267 163.733 111.333 158.8 113.2C161.067 117.733 164.333 121.4 168.6 124.2C173 126.867 177.867 128.2 183.2 128.2C186.8 128.2 190.4 127.533 194 126.2C197.733 124.867 200.733 123.067 203 120.8L215.8 133.2ZM201.4 84C199.8 80.6667 197.267 78.2 193.8 76.6C190.333 74.8667 186.8 74 183.2 74C179.333 74 175.733 74.7333 172.4 76.2C169.2 77.6667 166.4 79.6667 164 82.2C161.6 84.6 159.667 87.4 158.2 90.6C156.867 93.8 156.2 97.0667 156.2 100.4C156.2 101.067 156.2 101.533 156.2 101.8C156.333 102.067 156.4 102.267 156.4 102.4C159.867 101.067 163.6 99.6 167.6 98C171.733 96.2667 175.8 94.6 179.8 93C183.8 91.2667 187.667 89.6667 191.4 88.2C195.133 86.6 198.467 85.2 201.4 84Z" fill="#972AED"/>
	</g>
	<g id="destux-s" filter="url(#filter2_i_10_2)">
	<path d="M287.6 67.8L278.6 79.8C278.467 79.6667 278 79.3333 277.2 78.8C276.4 78.2667 275.333 77.7333 274 77.2C272.8 76.6667 271.333 76.2 269.6 75.8C268 75.2667 266.333 75 264.6 75C262.333 75 260.067 75.5333 257.8 76.6C255.667 77.6667 254.6 79.6667 254.6 82.6C254.6 85.1333 255.467 87.2 257.2 88.8C259.067 90.4 261.333 91.8667 264 93.2C266.667 94.4 269.533 95.6667 272.6 97C275.8 98.3333 278.733 100 281.4 102C284.067 103.867 286.267 106.267 288 109.2C289.867 112 290.8 115.6 290.8 120C290.8 127.467 288.2 133.667 283 138.6C277.933 143.4 270.933 145.8 262 145.8C256.8 145.8 251.667 144.933 246.6 143.2C241.667 141.333 237.667 138.667 234.6 135.2C235.533 134.267 236.533 133.067 237.6 131.6C238.8 130.133 239.933 128.733 241 127.4C242.2 126.067 243.133 125 243.8 124.2C244.6 123.267 245.067 122.8 245.2 122.8C245.2 122.933 245.667 123.333 246.6 124C247.667 124.667 249 125.4 250.6 126.2C252.2 126.867 254 127.533 256 128.2C258 128.733 260 129 262 129C265.2 129 267.933 128.2 270.2 126.6C272.467 125 273.6 122.867 273.6 120.2C273.6 117.8 272.667 115.933 270.8 114.6C269.067 113.133 266.867 111.8 264.2 110.6C261.533 109.4 258.6 108.2 255.4 107C252.2 105.667 249.267 104 246.6 102C243.933 100 241.667 97.5333 239.8 94.6C238.067 91.5333 237.2 87.6 237.2 82.8C237.2 78.2667 238 74.4667 239.6 71.4C241.333 68.3333 243.467 65.8667 246 64C248.667 62 251.6 60.6 254.8 59.8C258 58.8667 261.067 58.4 264 58.4C267.867 58.4 272 59.2 276.4 60.8C280.8 62.4 284.533 64.7333 287.6 67.8Z" fill="#972AED"/>
	</g>
	<g id="destux-t" filter="url(#filter3_i_10_2)">
	<path d="M323.2 23.6H340.2V60.6H362.6V75.8H340.2V144H323.2V75.8H308.2V60.6H323.2V23.6Z" fill="#972AED"/>
	</g>
	<g id="destux-u" filter="url(#filter4_i_10_2)">
	<path d="M458.8 145.8H444.4L442.4 122.6C439.333 129.4 435 135 429.4 139.4C423.933 143.8 416.933 146 408.4 146C399.867 146 393.067 143.733 388 139.2C383.067 134.533 380.467 128.467 380.2 121V60.4H397.2V113.4C397.467 117.533 398.933 121.067 401.6 124C404.4 126.933 408.667 128.6 414.4 129C418.4 129 422.067 128.333 425.4 127C428.733 125.533 431.6 123.6 434 121.2C436.4 118.8 438.267 115.933 439.6 112.6C440.933 109.267 441.6 105.6 441.6 101.6V60.4H458.8V145.8Z" fill="#972AED"/>
	</g>
	<g id="destux-x" filter="url(#filter5_i_10_2)">
	<path d="M506.8 99.8C502.133 93.1333 497.267 86.5333 492.2 80C487.267 73.4667 482.533 66.9333 478 60.4H499C500.6 63.0667 502.133 65.4667 503.6 67.6C505.2 69.7333 506.733 71.8 508.2 73.8C509.8 75.8 511.333 77.8667 512.8 80C514.4 82 516.067 84.2667 517.8 86.8C521.133 81.8667 524.267 77.5333 527.2 73.8C530.133 69.9333 533.333 65.4667 536.8 60.4H555.8C553.4 64.1333 551.067 67.6 548.8 70.8C546.533 73.8667 544.267 77 542 80.2C539.733 83.2667 537.4 86.4667 535 89.8C532.733 93 530.333 96.6 527.8 100.6C530.2 103.8 532.733 107.267 535.4 111C538.2 114.733 541 118.533 543.8 122.4C546.6 126.133 549.333 129.867 552 133.6C554.667 137.333 557.133 140.8 559.4 144H537.6C533.867 138.8 530.2 134 526.6 129.6C523 125.2 519.333 120.467 515.6 115.4C512.133 120.467 508.733 125.2 505.4 129.6C502.067 134 498.667 138.8 495.2 144H476.2C481.267 136.4 486.4 129 491.6 121.8C496.8 114.467 501.867 107.133 506.8 99.8Z" fill="#972AED"/>
	</g>
	</g>
	<defs>
	<filter id="filter0_i_10_2" x="17.8" y="3" width="116.4" height="149" filterUnits="userSpaceOnUse" color-interpolation-filters="sRGB">
	<feFlood flood-opacity="0" result="BackgroundImageFix"/>
	<feBlend mode="normal" in="SourceGraphic" in2="BackgroundImageFix" result="shape"/>
	<feColorMatrix in="SourceAlpha" type="matrix" values="0 0 0 0 0 0 0 0 0 0 0 0 0 0 0 0 0 0 127 0" result="hardAlpha"/>
	<feOffset dy="4"/>
	<feGaussianBlur stdDeviation="2"/>
	<feComposite in2="hardAlpha" operator="arithmetic" k2="-1" k3="1"/>
	<feColorMatrix type="matrix" values="0 0 0 0 0 0 0 0 0 0 0 0 0 0 0 0 0 0 0.25 0"/>
	<feBlend mode="normal" in2="shape" result="effect1_innerShadow_10_2"/>
	</filter>
	<filter id="filter1_i_10_2" x="139.2" y="57.2" width="83.6" height="91.8" filterUnits="userSpaceOnUse" color-interpolation-filters="sRGB">
	<feFlood flood-opacity="0" result="BackgroundImageFix"/>
	<feBlend mode="normal" in="SourceGraphic" in2="BackgroundImageFix" result="shape"/>
	<feColorMatrix in="SourceAlpha" type="matrix" values="0 0 0 0 0 0 0 0 0 0 0 0 0 0 0 0 0 0 127 0" result="hardAlpha"/>
	<feOffset dy="4"/>
	<feGaussianBlur stdDeviation="2"/>
	<feComposite in2="hardAlpha" operator="arithmetic" k2="-1" k3="1"/>
	<feColorMatrix type="matrix" values="0 0 0 0 0 0 0 0 0 0 0 0 0 0 0 0 0 0 0.25 0"/>
	<feBlend mode="normal" in2="shape" result="effect1_innerShadow_10_2"/>
	</filter>
	<filter id="filter2_i_10_2" x="234.6" y="58.4" width="56.2" height="91.4" filterUnits="userSpaceOnUse" color-interpolation-filters="sRGB">
	<feFlood flood-opacity="0" result="BackgroundImageFix"/>
	<feBlend mode="normal" in="SourceGraphic" in2="BackgroundImageFix" result="shape"/>
	<feColorMatrix in="SourceAlpha" type="matrix" values="0 0 0 0 0 0 0 0 0 0 0 0 0 0 0 0 0 0 127 0" result="hardAlpha"/>
	<feOffset dy="4"/>
	<feGaussianBlur stdDeviation="2"/>
	<feComposite in2="hardAlpha" operator="arithmetic" k2="-1" k3="1"/>
	<feColorMatrix type="matrix" values="0 0 0 0 0 0 0 0 0 0 0 0 0 0 0 0 0 0 0.25 0"/>
	<feBlend mode="normal" in2="shape" result="effect1_innerShadow_10_2"/>
	</filter>
	<filter id="filter3_i_10_2" x="308.2" y="23.6" width="54.4" height="124.4" filterUnits="userSpaceOnUse" color-interpolation-filters="sRGB">
	<feFlood flood-opacity="0" result="BackgroundImageFix"/>
	<feBlend mode="normal" in="SourceGraphic" in2="BackgroundImageFix" result="shape"/>
	<feColorMatrix in="SourceAlpha" type="matrix" values="0 0 0 0 0 0 0 0 0 0 0 0 0 0 0 0 0 0 127 0" result="hardAlpha"/>
	<feOffset dy="4"/>
	<feGaussianBlur stdDeviation="2"/>
	<feComposite in2="hardAlpha" operator="arithmetic" k2="-1" k3="1"/>
	<feColorMatrix type="matrix" values="0 0 0 0 0 0 0 0 0 0 0 0 0 0 0 0 0 0 0.25 0"/>
	<feBlend mode="normal" in2="shape" result="effect1_innerShadow_10_2"/>
	</filter>
	<filter id="filter4_i_10_2" x="380.2" y="60.4" width="78.6" height="89.6" filterUnits="userSpaceOnUse" color-interpolation-filters="sRGB">
	<feFlood flood-opacity="0" result="BackgroundImageFix"/>
	<feBlend mode="normal" in="SourceGraphic" in2="BackgroundImageFix" result="shape"/>
	<feColorMatrix in="SourceAlpha" type="matrix" values="0 0 0 0 0 0 0 0 0 0 0 0 0 0 0 0 0 0 127 0" result="hardAlpha"/>
	<feOffset dy="4"/>
	<feGaussianBlur stdDeviation="2"/>
	<feComposite in2="hardAlpha" operator="arithmetic" k2="-1" k3="1"/>
	<feColorMatrix type="matrix" values="0 0 0 0 0 0 0 0 0 0 0 0 0 0 0 0 0 0 0.25 0"/>
	<feBlend mode="normal" in2="shape" result="effect1_innerShadow_10_2"/>
	</filter>
	<filter id="filter5_i_10_2" x="476.2" y="60.4" width="83.2" height="87.6" filterUnits="userSpaceOnUse" color-interpolation-filters="sRGB">
	<feFlood flood-opacity="0" result="BackgroundImageFix"/>
	<feBlend mode="normal" in="SourceGraphic" in2="BackgroundImageFix" result="shape"/>
	<feColorMatrix in="SourceAlpha" type="matrix" values="0 0 0 0 0 0 0 0 0 0 0 0 0 0 0 0 0 0 127 0" result="hardAlpha"/>
	<feOffset dy="4"/>
	<feGaussianBlur stdDeviation="2"/>
	<feComposite in2="hardAlpha" operator="arithmetic" k2="-1" k3="1"/>
	<feColorMatrix type="matrix" values="0 0 0 0 0 0 0 0 0 0 0 0 0 0 0 0 0 0 0.25 0"/>
	<feBlend mode="normal" in2="shape" result="effect1_innerShadow_10_2"/>
	</filter>
	</defs>
</svg>
